<?xml version="1.0" encoding="UTF-8"?>
<!DOCTYPE svg  PUBLIC '-//W3C//DTD SVG 1.1//EN'  'http://www.w3.org/Graphics/SVG/1.1/DTD/svg11.dtd'>
<svg fill="rebeccapurple" version="1.1" viewBox="0 0 32.75 32.75" xml:space="preserve" xmlns="http://www.w3.org/2000/svg">
	<path d="m29.375 1.25h-1.123c0.029-0.093 0.059-0.186 0.059-0.289 0-0.531-0.432-0.961-0.963-0.961s-0.961 0.431-0.961 0.961c0 0.103 0.028 0.196 0.059 0.289h-3.68c0.029-0.093 0.059-0.186 0.059-0.289-1e-3 -0.531-0.432-0.961-0.964-0.961-0.529 0-0.961 0.431-0.961 0.961 0 0.103 0.029 0.196 0.06 0.289h-3.681c0.029-0.093 0.058-0.186 0.058-0.289 0-0.531-0.43-0.961-0.961-0.961s-0.961 0.431-0.961 0.961c0 0.103 0.028 0.196 0.058 0.289h-3.681c0.029-0.093 0.059-0.186 0.059-0.289 0-0.531-0.431-0.961-0.961-0.961-0.531 0-0.962 0.431-0.962 0.961 0 0.103 0.028 0.196 0.058 0.289h-3.68c0.03-0.093 0.059-0.186 0.059-0.289 0-0.531-0.43-0.961-0.961-0.961s-0.962 0.431-0.962 0.961c0 0.103 0.028 0.196 0.058 0.289h-1.125c-1.518 0-2.75 1.233-2.75 2.75v26c0 1.518 1.232 2.75 2.75 2.75h22.895l5.855-5.855v-22.895c0-1.516-1.232-2.75-2.75-2.75zm1.25 25.023-0.311 0.311h-2.355c-1.102 0-2 0.9-2 2v2.355l-0.311 0.311h-22.273c-0.689 0-1.25-0.561-1.25-1.25v-25h28.5v21.273z"/>
	<rect x="9.892" y="7.535" width="3.536" height="3.536"/>
	<rect x="14.607" y="7.535" width="3.536" height="3.536"/>
	<rect x="19.322" y="7.535" width="3.535" height="3.536"/>
	<rect x="24.037" y="7.535" width="3.537" height="3.536"/>
	<rect x="5.176" y="12.25" width="3.537" height="3.537"/>
	<rect x="9.892" y="12.25" width="3.536" height="3.537"/>
	<rect x="14.607" y="12.25" width="3.536" height="3.537"/>
	<rect x="19.322" y="12.25" width="3.535" height="3.537"/>
	<rect x="24.037" y="12.25" width="3.537" height="3.537"/>
	<rect x="5.176" y="16.965" width="3.537" height="3.537"/>
	<rect x="9.892" y="16.965" width="3.536" height="3.537"/>
	<rect x="14.607" y="16.965" width="3.536" height="3.537"/>
	<rect x="19.322" y="16.965" width="3.535" height="3.537"/>
	<rect x="24.037" y="16.965" width="3.537" height="3.537"/>
	<rect x="5.176" y="21.68" width="3.537" height="3.536"/>
	<rect x="9.892" y="21.68" width="3.536" height="3.536"/>
	<rect x="14.607" y="21.68" width="3.536" height="3.536"/>
	<rect x="19.322" y="21.68" width="3.535" height="3.536"/>
	<rect x="24.037" y="21.68" width="3.537" height="3.536"/>
	<rect x="5.176" y="26.984" width="8.251" height="1.768"/>
</svg>
